<svg id="apple-ios-app-store-seeklogo.com" xmlns="http://www.w3.org/2000/svg" xmlns:xlink="http://www.w3.org/1999/xlink" width="45" height="45" viewBox="0 0 70 70">
  <defs>
    <linearGradient id="linear-gradient" x1="0.5" x2="0.5" y2="1" gradientUnits="objectBoundingBox">
      <stop offset="0" stop-color="#17c9fb"/>
      <stop offset="1" stop-color="#1a74e8"/>
    </linearGradient>
  </defs>
  <path id="Path_137" data-name="Path 137" d="M15.184,0H54.15A15.184,15.184,0,0,1,69.334,15.184V54.15A15.184,15.184,0,0,1,54.15,69.334H15.184A15.184,15.184,0,0,1,0,54.15V15.184A15.184,15.184,0,0,1,15.184,0Z" transform="translate(0 0)" fill="url(#linear-gradient)"/>
  <path id="Path_138" data-name="Path 138" d="M48.85,84.371l.007,0-2.371,4.106a3.134,3.134,0,1,1-5.428-3.134l1.746-3.025.168-.29A2.586,2.586,0,0,1,45.488,81s3.477.377,3.728,2.184a2.114,2.114,0,0,1-.366,1.189ZM82.473,73.884H75.081a1.09,1.09,0,0,1-.81-.318l-.005-.009L66.352,59.85l-.01.007-.475-.68c-.778-1.189-2.013,1.853-2.013,1.853-1.475,3.39.209,7.243.8,8.408L75.642,88.474a3.133,3.133,0,1,0,5.427-3.134l-2.748-4.76c-.053-.115-.146-.428.418-.43h3.734a3.134,3.134,0,1,0,0-6.267Zm-14.358,4.26s.395,2.007-1.132,2.007H39.655a3.134,3.134,0,1,1,0-6.267h7.026c1.134-.066,1.4-.72,1.4-.72l.006,0,9.171-15.884h0a.7.7,0,0,0,0-.643l-3.029-5.246a3.134,3.134,0,0,1,5.428-3.134l1.4,2.433,1.4-2.429A3.134,3.134,0,0,1,67.9,51.4L55.134,73.5c-.056.135-.073.346.342.383H63.1l0,.074S67.514,74.027,68.115,78.144Z" transform="translate(-26.63 -34.047)" fill="#fff"/>
</svg>
