<svg xmlns="http://www.w3.org/2000/svg" id="prefix__twitter" width="34.931" height="28.382" viewBox="0 0 34.931 28.382">
    <g id="prefix__Group_53" data-name="Group 53">
        <path id="prefix__Path_2245" d="M34.931 51.36a14.931 14.931 0 0 1-4.126 1.131 7.121 7.121 0 0 0 3.15-3.958 14.311 14.311 0 0 1-4.541 1.733 7.161 7.161 0 0 0-12.388 4.9 7.374 7.374 0 0 0 .166 1.633 20.27 20.27 0 0 1-14.76-7.493 7.163 7.163 0 0 0 2.2 9.571 7.072 7.072 0 0 1-3.232-.882v.079a7.194 7.194 0 0 0 5.735 7.036 7.148 7.148 0 0 1-1.878.236 6.331 6.331 0 0 1-1.357-.123 7.229 7.229 0 0 0 6.692 4.989 14.389 14.389 0 0 1-8.879 3.054A13.415 13.415 0 0 1 0 73.168a20.161 20.161 0 0 0 10.986 3.214c13.178 0 20.382-10.916 20.382-20.378 0-.317-.011-.622-.026-.926a14.286 14.286 0 0 0 3.589-3.718z" data-name="Path 2245" transform="translate(0 -48)" style="fill:#fff"/>
    </g>
</svg>
