<svg xmlns="http://www.w3.org/2000/svg" width="40.211" height="40.211" viewBox="0 0 40.211 40.211">
    <path id="prefix__globe" d="M34.319 5.891a20.1 20.1 0 1 0 0 28.427 20.09 20.09 0 0 0 0-28.427zm-.84 25.562a20.148 20.148 0 0 0-3-2.224 32.509 32.509 0 0 0 1.213-7.844H37.6a17.38 17.38 0 0 1-4.121 10.068zM2.613 21.386h5.91a32.509 32.509 0 0 0 1.212 7.844 20.149 20.149 0 0 0-3 2.224 17.381 17.381 0 0 1-4.122-10.068zM6.732 8.757a20.149 20.149 0 0 0 3 2.224 32.509 32.509 0 0 0-1.213 7.844H2.613A17.381 17.381 0 0 1 6.732 8.757zm12.092 2.488a17.4 17.4 0 0 1-5.971-1.513c1.086-2.8 3.088-6.151 5.971-6.982zm0 2.567v5.012h-7.739a30.181 30.181 0 0 1 .971-6.641 19.966 19.966 0 0 0 6.769 1.629zm0 7.574V26.4a19.966 19.966 0 0 0-6.768 1.629 30.181 30.181 0 0 1-.971-6.641zm0 7.579v8.5c-2.882-.831-4.885-4.185-5.971-6.982a17.4 17.4 0 0 1 5.972-1.518zm2.562 0a17.4 17.4 0 0 1 5.971 1.513c-1.086 2.8-3.088 6.151-5.971 6.982zm0-2.567v-5.012h7.739a30.181 30.181 0 0 1-.971 6.641 19.967 19.967 0 0 0-6.767-1.627zm0-7.574v-5.012a19.966 19.966 0 0 0 6.768-1.629 30.181 30.181 0 0 1 .971 6.641zm0-7.579V2.75c2.883.831 4.885 4.186 5.971 6.982a17.4 17.4 0 0 1-5.97 1.513zm5.754-7.216a17.462 17.462 0 0 1 4.541 2.9 17.606 17.606 0 0 1-2.061 1.564 19.286 19.286 0 0 0-2.48-4.464zM10.591 8.493A17.613 17.613 0 0 1 8.53 6.929a17.462 17.462 0 0 1 4.541-2.9 19.292 19.292 0 0 0-2.48 4.464zm0 23.225a19.287 19.287 0 0 0 2.48 4.464 17.462 17.462 0 0 1-4.541-2.9 17.606 17.606 0 0 1 2.061-1.565zm19.029 0a17.614 17.614 0 0 1 2.061 1.564 17.462 17.462 0 0 1-4.541 2.9 19.285 19.285 0 0 0 2.48-4.464zm2.069-12.893a32.509 32.509 0 0 0-1.213-7.844 20.153 20.153 0 0 0 3-2.224A17.381 17.381 0 0 1 37.6 18.824z" transform="translate(0 .001)" style="fill:#1cff86"/>
</svg>
