<svg id="google-play-store" xmlns="http://www.w3.org/2000/svg" xmlns:xlink="http://www.w3.org/1999/xlink" width="45" height="45" viewBox="0 0 70 70">
  <defs>
    <linearGradient id="linear-gradient" y1="0.5" x2="1" y2="0.5" gradientUnits="objectBoundingBox">
      <stop offset="0" stop-color="#63be6b"/>
      <stop offset="0.506" stop-color="#5bbc6a"/>
      <stop offset="1" stop-color="#4ab96a"/>
    </linearGradient>
    <linearGradient id="linear-gradient-2" y1="0.5" x2="0.999" y2="0.5" gradientUnits="objectBoundingBox">
      <stop offset="0" stop-color="#3ec6f2"/>
      <stop offset="1" stop-color="#45afe3"/>
    </linearGradient>
    <linearGradient id="linear-gradient-3" y1="0.5" x2="1" y2="0.5" gradientUnits="objectBoundingBox">
      <stop offset="0" stop-color="#faa51a"/>
      <stop offset="0.387" stop-color="#fab716"/>
      <stop offset="0.741" stop-color="#fac412"/>
      <stop offset="1" stop-color="#fac80f"/>
    </linearGradient>
    <linearGradient id="linear-gradient-4" y1="0.5" x2="1" y2="0.5" gradientUnits="objectBoundingBox">
      <stop offset="0" stop-color="#ec3b50"/>
      <stop offset="1" stop-color="#e7515b"/>
    </linearGradient>
  </defs>
  <path id="Path_133" data-name="Path 133" d="M38.789,20.873,2.223.19A1.486,1.486,0,0,0,.741.2,1.446,1.446,0,0,0,0,1.466S.015,3.373.03,6.512l26.635,26.36Z" transform="translate(0 0.001)" fill="url(#linear-gradient)"/>
  <path id="Path_134" data-name="Path 134" d="M.2,44.4C.244,55.8.378,83.462.437,97.235L26.85,70.928Z" transform="translate(-0.17 -37.887)" fill="url(#linear-gradient-2)"/>
  <path id="Path_135" data-name="Path 135" d="M212.868,154.138,191.939,142.3l-12.139,12,13.7,13.554,19.387-11.178a1.464,1.464,0,0,0,.741-1.262A1.483,1.483,0,0,0,212.868,154.138Z" transform="translate(-153.15 -121.263)" fill="url(#linear-gradient-3)"/>
  <path id="Path_136" data-name="Path 136" d="M1.7,250.325c.03,4.885.044,8.009.044,8.009a1.429,1.429,0,0,0,.741,1.262,1.486,1.486,0,0,0,1.482,0l37.841-21.842L28.113,224.2Z" transform="translate(-1.448 -190.977)" fill="url(#linear-gradient-4)"/>
</svg>
