<svg xmlns="http://www.w3.org/2000/svg" id="prefix__instagram" width="28.594" height="28.6" viewBox="0 0 28.594 28.6">
    <defs>
        <style>
            .prefix__cls-1{fill:#fff}
        </style>
    </defs>
    <path id="prefix__Path_2242" d="M28.97 8.408a10.45 10.45 0 0 0-.665-3.47A7.326 7.326 0 0 0 24.12.754 10.477 10.477 0 0 0 20.651.09C19.12.017 18.634 0 14.751 0s-4.369.017-5.894.084a10.453 10.453 0 0 0-3.469.665A6.978 6.978 0 0 0 2.851 2.4 7.041 7.041 0 0 0 1.2 4.933 10.478 10.478 0 0 0 .538 8.4C.465 9.934.449 10.42.449 14.3s.016 4.371.083 5.9a10.45 10.45 0 0 0 .665 3.47 7.325 7.325 0 0 0 4.185 4.185 10.479 10.479 0 0 0 3.47.665c1.525.067 2.011.084 5.894.084s4.369-.017 5.894-.084a10.448 10.448 0 0 0 3.469-.665 7.315 7.315 0 0 0 4.185-4.185 10.485 10.485 0 0 0 .665-3.47c.067-1.525.084-2.011.084-5.894s-.006-4.369-.073-5.894zm-2.575 11.677a7.839 7.839 0 0 1-.492 2.654 4.744 4.744 0 0 1-2.715 2.715 7.867 7.867 0 0 1-2.654.491c-1.508.067-1.961.084-5.777.084s-4.274-.017-5.777-.084a7.835 7.835 0 0 1-2.654-.491 4.4 4.4 0 0 1-1.642-1.067 4.446 4.446 0 0 1-1.067-1.642 7.868 7.868 0 0 1-.491-2.654c-.067-1.508-.084-1.961-.084-5.777s.017-4.274.084-5.777a7.835 7.835 0 0 1 .491-2.654A4.347 4.347 0 0 1 4.689 4.24a4.44 4.44 0 0 1 1.643-1.067 7.872 7.872 0 0 1 2.654-.492c1.508-.067 1.961-.084 5.777-.084s4.274.017 5.777.084a7.839 7.839 0 0 1 2.654.492 4.4 4.4 0 0 1 1.642 1.067A4.445 4.445 0 0 1 25.9 5.883a7.871 7.871 0 0 1 .492 2.654c.067 1.508.084 1.961.084 5.777s-.017 4.263-.084 5.771zm0 0" class="prefix__cls-1" data-name="Path 2242" transform="translate(-.449)"/>
    <path id="prefix__Path_2243" d="M132.3 124.5a7.347 7.347 0 1 0 7.347 7.347 7.349 7.349 0 0 0-7.347-7.347zm0 12.112a4.766 4.766 0 1 1 4.766-4.766 4.766 4.766 0 0 1-4.766 4.766zm0 0" class="prefix__cls-1" data-name="Path 2243" transform="translate(-117.993 -117.544)"/>
    <path id="prefix__Path_2244" d="M365.88 90.317a1.715 1.715 0 1 1-1.715-1.715 1.715 1.715 0 0 1 1.715 1.715zm0 0" class="prefix__cls-1" data-name="Path 2244" transform="translate(-342.225 -83.652)"/>
</svg>
