<?xml version="1.0" encoding="utf-8"?>
<!-- Generator: Adobe Illustrator 23.0.0, SVG Export Plug-In . SVG Version: 6.00 Build 0)  -->
<svg version="1.1" id="Layer_1" xmlns="http://www.w3.org/2000/svg" xmlns:xlink="http://www.w3.org/1999/xlink" x="0px" y="0px"
	 viewBox="0 0 2330 1846" style="enable-background:new 0 0 2330 1846;" xml:space="preserve">
<style type="text/css">
	.st0{fill:#1958F5;}
	.st1{fill:#2762F6;}
</style>
<g id="Group_121" transform="translate(232 -1028)">
	<rect id="Rectangle_1" x="-232" y="1028" class="st0" width="2330" height="1846"/>
	<path id="Rectangle_14" class="st1" d="M1639,1536h372c25.4,0,46,20.6,46,46l0,0c0,25.4-20.6,46-46,46h-372c-25.4,0-46-20.6-46-46
		l0,0C1593,1556.6,1613.6,1536,1639,1536z"/>
	<path id="Rectangle_16" class="st1" d="M1269,1141h208c25.4,0,46,20.6,46,46l0,0c0,25.4-20.6,46-46,46h-208c-25.4,0-46-20.6-46-46
		l0,0C1223,1161.6,1243.6,1141,1269,1141z"/>
	<path id="Rectangle_15" class="st1" d="M647,1828h372c25.4,0,46,20.6,46,46l0,0c0,25.4-20.6,46-46,46H647c-25.4,0-46-20.6-46-46
		l0,0C601,1848.6,621.6,1828,647,1828z"/>
	<path id="Rectangle_18" class="st1" d="M-38,2230h479c25.4,0,46,20.6,46,46l0,0c0,25.4-20.6,46-46,46H-38c-25.4,0-46-20.6-46-46
		l0,0C-84,2250.6-63.4,2230-38,2230z"/>
	<path id="Rectangle_19" class="st1" d="M1664,2107h210c25.4,0,46,20.6,46,46l0,0c0,25.4-20.6,46-46,46h-210c-25.4,0-46-20.6-46-46
		l0,0C1618,2127.6,1638.6,2107,1664,2107z"/>
	<path id="Rectangle_21" class="st1" d="M1842,2530h210c25.4,0,46,20.6,46,46l0,0c0,25.4-20.6,46-46,46h-210c-25.4,0-46-20.6-46-46
		l0,0C1796,2550.6,1816.6,2530,1842,2530z"/>
	<path id="Rectangle_20" class="st1" d="M535,2746h379c25.4,0,46,20.6,46,46l0,0c0,25.4-20.6,46-46,46H535c-25.4,0-46-20.6-46-46
		l0,0C489,2766.6,509.6,2746,535,2746z"/>
	<path id="Rectangle_17" class="st1" d="M-186,1302h372c25.4,0,46,20.6,46,46l0,0c0,25.4-20.6,46-46,46h-372c-25.4,0-46-20.6-46-46
		l0,0C-232,1322.6-211.4,1302-186,1302z"/>
</g>
</svg>
