<svg xmlns="http://www.w3.org/2000/svg" width="324" height="221.594" viewBox="0 0 324 221.594">
    <defs>
        <style>
            .prefix__cls-1{fill:#1958f4}
        </style>
    </defs>
    <g id="prefix__Logo_Xtra_VPN" data-name="Logo Xtra VPN" transform="translate(.016 -.018)">
        <path id="prefix__Path_2246" d="M1059.573 920.541a12.065 12.065 0 0 1-12.058 12.065H1002.2q-1.981-2.935-3.786-6.005a118.565 118.565 0 0 1-8.7-18.122h57.806a12.061 12.061 0 0 1 12.053 12.062z" class="prefix__cls-1" data-name="Path 2246" transform="translate(-886.523 -831.243)"/>
        <path id="prefix__Path_2247" d="M1245.759 908.477a118.933 118.933 0 0 1-12.494 24.127h-12.839a12.064 12.064 0 1 1 0-24.128z" class="prefix__cls-1" data-name="Path 2247" transform="translate(-1024.965 -831.24)"/>
        <path id="prefix__Path_2248" d="M1083.129 1027.267a12.024 12.024 0 0 1-2.766 7.7 118.941 118.941 0 0 1-24.053-19.75h14.754a12.061 12.061 0 0 1 12.065 12.065z" class="prefix__cls-1" data-name="Path 2248" transform="translate(-928.691 -898.827)"/>
        <path id="prefix__Path_2249" d="M1189.173 1015.17a118.81 118.81 0 0 1-27.01 21.522 11.758 11.758 0 0 1-1.045-.924 12.065 12.065 0 0 1 8.532-20.6z" class="prefix__cls-1" data-name="Path 2249" transform="translate(-992.814 -898.796)"/>
        <path id="prefix__Path_2250" d="M1016.331 813.845a12.065 12.065 0 0 1-12.065 12.065h-32.575a118.877 118.877 0 0 1-3.151-24.13h35.726a12.061 12.061 0 0 1 12.065 12.065z" class="prefix__cls-1" data-name="Path 2250" transform="translate(-873.118 -763.684)"/>
        <path id="prefix__Path_2251" d="M1201.99 801.78a118.616 118.616 0 0 1-3.151 24.13h-59.794a12.065 12.065 0 1 1 0-24.13z" class="prefix__cls-1" data-name="Path 2251" transform="translate(-973.437 -763.684)"/>
        <path id="prefix__Path_2252" d="M1057.48 708.991a12.065 12.065 0 0 1-12.065 12.069H968.38a11.082 11.082 0 0 1 8.683-10.723l53.62-11.889a20.015 20.015 0 0 1 8.628 0l15.906 3.525a12.01 12.01 0 0 1 2.263 7.017z" class="prefix__cls-1" data-name="Path 2252" transform="translate(-873.017 -697.96)"/>
        <path id="prefix__Path_2253" d="M1273.234 733.021H1251.5a12.072 12.072 0 0 1-11.372-16.141l24.413 5.414a11.075 11.075 0 0 1 8.693 10.727z" class="prefix__cls-1" data-name="Path 2253" transform="translate(-1044.634 -709.928)"/>
        <path id="prefix__Path_2254" d="M720.852 1189.572l-10.414-16.39a4.886 4.886 0 0 1 4.127-7.5 4.883 4.883 0 0 1 4.2 2.388l8.291 13.94h.558l8.294-13.94a4.882 4.882 0 0 1 4.2-2.388 4.883 4.883 0 0 1 4.123 7.5l-10.4 16.39 11.717 18.646a4.886 4.886 0 0 1-4.138 7.483h-.139a4.882 4.882 0 0 1-4.182-2.359l-9.475-15.664h-.558l-9.472 15.664a4.894 4.894 0 0 1-4.182 2.359h-.143a4.883 4.883 0 0 1-4.134-7.483z" class="prefix__cls-1" data-name="Path 2254" transform="translate(-708.39 -994.094)"/>
        <path id="prefix__Path_2255" d="M844.163 1211.23v-36.606h-9.5a4.472 4.472 0 0 1-4.472-4.472 4.468 4.468 0 0 1 4.472-4.472h28.433a4.472 4.472 0 0 1 4.472 4.472 4.472 4.472 0 0 1-4.472 4.472h-9.5v36.606a4.472 4.472 0 0 1-4.475 4.457h-.488a4.472 4.472 0 0 1-4.472-4.457z" class="prefix__cls-1" data-name="Path 2255" transform="translate(-785.52 -994.094)"/>
        <path id="prefix__Path_2256" d="M950.36 1170.029a4.4 4.4 0 0 1 4.384-4.4H968.6a18.827 18.827 0 0 1 6.845 1.189 15.8 15.8 0 0 1 5.275 3.283 14.308 14.308 0 0 1 3.39 4.993 16.507 16.507 0 0 1 1.188 6.324 13.1 13.1 0 0 1-.84 4.717 14.2 14.2 0 0 1-2.3 3.98 16.872 16.872 0 0 1-3.426 3.144 17.484 17.484 0 0 1-3.69 1.974.367.367 0 0 0-.176.543l8.437 12.839a4.545 4.545 0 0 1-3.8 7.047 4.545 4.545 0 0 1-3.746-1.97l-11.034-16.045a1.794 1.794 0 0 0-1.467-.778h-2.726a.734.734 0 0 0-.734.734v13.345a4.714 4.714 0 0 1-4.714 4.707 4.714 4.714 0 0 1-4.717-4.714zm18.166 18.18a7.355 7.355 0 0 0 5.275-1.955 6.548 6.548 0 0 0 2.062-4.96 7.621 7.621 0 0 0-.455-2.568 6.551 6.551 0 0 0-1.365-2.234 6.682 6.682 0 0 0-2.271-1.574 7.757 7.757 0 0 0-3.107-.594h-7.557a1.317 1.317 0 0 0-1.317 1.317v11.273a1.313 1.313 0 0 0 1.317 1.313z" class="prefix__cls-1" data-name="Path 2256" transform="translate(-861.607 -994.059)"/>
        <path id="prefix__Path_2257" d="M1084.881 1165.68a7.766 7.766 0 0 1 7.271 5.037l14.453 38.462a4.828 4.828 0 0 1-4.519 6.522 4.828 4.828 0 0 1-4.564-3.251l-2.7-7.879a1.214 1.214 0 0 0-1.145-.818h-17.567a1.214 1.214 0 0 0-1.145.818l-2.718 7.88a4.824 4.824 0 0 1-4.574 3.235 4.824 4.824 0 0 1-4.516-6.522l14.449-38.463a7.766 7.766 0 0 1 7.275-5.021zm6.394 28.9l-6.023-17.8a.392.392 0 0 0-.367-.264.392.392 0 0 0-.367.264l-6.023 17.8a.393.393 0 0 0 .367.517h12.047a.393.393 0 0 0 .367-.517z" class="prefix__cls-1" data-name="Path 2257" transform="translate(-932.831 -994.094)"/>
        <path id="prefix__Path_2258" d="M1237.795 1165.68h.022a4.769 4.769 0 0 1 4.523 3.261l10.983 33.015a.389.389 0 0 0 .367.264.385.385 0 0 0 .367-.26l11.511-33.077a4.769 4.769 0 0 1 4.5-3.2 4.769 4.769 0 0 1 4.479 6.4l-14.211 38.987a7.051 7.051 0 0 1-6.625 4.637 7.051 7.051 0 0 1-6.647-4.7l-13.752-38.972a4.769 4.769 0 0 1 4.483-6.354z" class="prefix__cls-1" data-name="Path 2258" transform="translate(-1040.592 -994.094)"/>
        <path id="prefix__Path_2259" d="M1368.59 1210.955v-40.924a4.4 4.4 0 0 1 4.4-4.4h13.21a19.074 19.074 0 0 1 6.673 1.152 16.426 16.426 0 0 1 5.415 3.25 15.484 15.484 0 0 1 0 22.843 16.428 16.428 0 0 1-5.415 3.25 18.994 18.994 0 0 1-6.673 1.152h-8.177v13.661a4.714 4.714 0 0 1-4.717 4.714 4.714 4.714 0 0 1-4.714-4.7zm17.744-22.6a7.138 7.138 0 0 0 5.59-2.095 6.992 6.992 0 0 0 1.885-4.82 7.53 7.53 0 0 0-.455-2.568 5.9 5.9 0 0 0-1.4-2.2 6.892 6.892 0 0 0-2.34-1.5 8.78 8.78 0 0 0-3.3-.558h-7a1.313 1.313 0 0 0-1.317 1.313v11.119a1.313 1.313 0 0 0 1.317 1.313z" class="prefix__cls-1" data-name="Path 2259" transform="translate(-1126.417 -994.061)"/>
        <path id="prefix__Path_2260" d="M1488.343 1165.68a7.007 7.007 0 0 1 6.005 3.4l17.267 28.774a.437.437 0 0 0 .814-.224v-27.27a4.681 4.681 0 0 1 4.681-4.681 4.681 4.681 0 0 1 4.681 4.681v39.009a6.335 6.335 0 0 1-6.335 6.332 6.335 6.335 0 0 1-5.432-3.077l-18.577-30.983a.437.437 0 0 0-.814.224v29.193a4.644 4.644 0 0 1-4.648 4.629 4.644 4.644 0 0 1-4.644-4.644v-38.36a7 7 0 0 1 7-7z" class="prefix__cls-1" data-name="Path 2260" transform="translate(-1197.806 -994.094)"/>
    </g>
</svg>
