<svg xmlns="http://www.w3.org/2000/svg" xmlns:xlink="http://www.w3.org/1999/xlink" width="470.826" height="431.005" viewBox="0 0 470.826 431.005">
  <defs>
    <filter id="sheild_2" x="175.512" y="129.771" width="293.332" height="301.234" filterUnits="userSpaceOnUse">
      <feOffset dy="41" input="SourceAlpha"/>
      <feGaussianBlur stdDeviation="30.5" result="blur"/>
      <feFlood flood-opacity="0.161"/>
      <feComposite operator="in" in2="blur"/>
      <feComposite in="SourceGraphic"/>
    </filter>
    <filter id="sheild_2-2" x="256" y="0" width="214.825" height="217.084" filterUnits="userSpaceOnUse">
      <feOffset dy="41" input="SourceAlpha"/>
      <feGaussianBlur stdDeviation="30.5" result="blur-2"/>
      <feFlood flood-opacity="0.161"/>
      <feComposite operator="in" in2="blur-2"/>
      <feComposite in="SourceGraphic"/>
    </filter>
    <filter id="sheild_2-3" x="0" y="97.63" width="228.522" height="231.454" filterUnits="userSpaceOnUse">
      <feOffset dy="41" input="SourceAlpha"/>
      <feGaussianBlur stdDeviation="30.5" result="blur-3"/>
      <feFlood flood-opacity="0.161"/>
      <feComposite operator="in" in2="blur-3"/>
      <feComposite in="SourceGraphic"/>
    </filter>
  </defs>
  <g id="Group_125" data-name="Group 125" transform="translate(-243.988 -1363.729)">
    <g id="Logo_Xtra_VPN" data-name="Logo Xtra VPN" transform="translate(363 1394.269)">
      <path id="Path_142" data-name="Path 142" d="M1120.209,931.01a22.537,22.537,0,0,1-22.523,22.537h-84.645q-3.7-5.482-7.071-11.217a221.466,221.466,0,0,1-16.26-33.85h107.976A22.53,22.53,0,0,1,1120.209,931.01Z" transform="translate(-975.094 -764.24)" fill="rgba(0,0,0,0.24)"/>
      <path id="Path_143" data-name="Path 143" d="M1278.218,908.478a222.153,222.153,0,0,1-23.339,45.067H1230.9a22.535,22.535,0,1,1,0-45.07Z" transform="translate(-1043.922 -764.239)" fill="rgba(0,0,0,0.24)"/>
      <path id="Path_144" data-name="Path 144" d="M1106.406,1037.722a22.461,22.461,0,0,1-5.167,14.39,222.182,222.182,0,0,1-44.93-36.892h27.559a22.53,22.53,0,0,1,22.537,22.537Z" transform="translate(-996.059 -797.841)" fill="rgba(0,0,0,0.24)"/>
      <path id="Path_145" data-name="Path 145" d="M1216.592,1015.17a221.927,221.927,0,0,1-50.452,40.2,22.03,22.03,0,0,1-1.953-1.727,22.537,22.537,0,0,1,15.938-38.475Z" transform="translate(-1027.938 -797.824)" fill="rgba(0,0,0,0.24)"/>
      <path id="Path_146" data-name="Path 146" d="M1057.81,824.317a22.537,22.537,0,0,1-22.537,22.537H974.426a222.051,222.051,0,0,1-5.886-45.073h66.733a22.53,22.53,0,0,1,22.537,22.537Z" transform="translate(-968.43 -730.653)" fill="rgba(0,0,0,0.24)"/>
      <path id="Path_147" data-name="Path 147" d="M1267.093,801.78a221.555,221.555,0,0,1-5.886,45.073h-111.69a22.537,22.537,0,1,1,0-45.073Z" transform="translate(-1018.305 -730.653)" fill="rgba(0,0,0,0.24)"/>
      <path id="Path_148" data-name="Path 148" d="M1134.812,718.549a22.537,22.537,0,0,1-22.537,22.544H968.38A20.7,20.7,0,0,1,984.6,721.064l100.158-22.208a37.385,37.385,0,0,1,16.116,0l29.711,6.585a22.433,22.433,0,0,1,4.228,13.108Z" transform="translate(-968.38 -697.978)" fill="rgba(0,0,0,0.24)"/>
      <path id="Path_149" data-name="Path 149" d="M1302.578,747.03h-40.592a22.55,22.55,0,0,1-21.242-30.15l45.6,10.114A20.687,20.687,0,0,1,1302.578,747.03Z" transform="translate(-1053.701 -703.928)" fill="rgba(0,0,0,0.24)"/>
    </g>
    <g id="Group_12" data-name="Group 12">
      <g transform="matrix(1, 0, 0, 1, 243.99, 1363.73)" filter="url(#sheild_2)">
        <g id="sheild_2-4" data-name="sheild 2" transform="translate(-567.29 -819.71)" fill="#1958f5">
          <path d="M 889.4595947265625 1113.218994140625 C 888.55859375 1113.218994140625 887.6744995117188 1113.05712890625 886.8319091796875 1112.738159179688 C 879.7852783203125 1110.062377929688 873.22509765625 1106.346435546875 867.329345703125 1101.691650390625 C 861.5590209960938 1097.135986328125 856.5133056640625 1091.753173828125 852.3323974609375 1085.692626953125 C 848.1514892578125 1079.632202148438 844.9110717773438 1073.00390625 842.7012939453125 1065.991943359375 C 840.4434204101563 1058.827514648438 839.299072265625 1051.375366210938 839.2999877929688 1043.842407226563 L 839.2999877929688 1026.240234375 C 839.2999877929688 1024.042602539063 840.0294189453125 1021.866333007813 841.3538208007813 1020.112548828125 C 842.6783447265625 1018.358642578125 844.5718994140625 1017.061584472656 846.6857299804688 1016.460327148438 L 884.6282348632813 1005.658386230469 L 884.6309814453125 1005.657592773438 L 884.6337280273438 1005.656799316406 C 886.2059936523438 1005.211120605469 887.831787109375 1004.985168457031 889.4660034179688 1004.985168457031 C 891.1001586914063 1004.985168457031 892.7259521484375 1005.211120605469 894.2982788085938 1005.656799316406 L 894.3011474609375 1005.657592773438 L 894.303955078125 1005.658386230469 L 932.2432250976563 1016.460754394531 C 934.3565063476563 1017.061218261719 936.2498779296875 1018.356811523438 937.5748901367188 1020.109375 C 938.90087890625 1021.86328125 939.6315307617188 1024.040161132813 939.632080078125 1026.238891601563 L 939.6319580078125 1043.843017578125 C 939.6319580078125 1051.3759765625 938.4866333007813 1058.828125 936.2278442382813 1065.992553710938 C 934.01708984375 1073.004516601563 930.7758178710938 1079.632690429688 926.5939331054688 1085.693115234375 C 922.412109375 1091.753540039063 917.365478515625 1097.13623046875 911.5943603515625 1101.691650390625 C 905.7109375 1106.335693359375 899.166748046875 1110.045043945313 892.1417236328125 1112.71728515625 L 892.1389770507813 1112.718505859375 L 892.0872192382813 1112.738159179688 C 891.24462890625 1113.05712890625 890.3605346679688 1113.218994140625 889.4595947265625 1113.218994140625 Z" stroke="none"/>
          <path d="M 889.4595336914063 1108.218994140625 C 889.75 1108.218994140625 890.0404052734375 1108.166748046875 890.3165283203125 1108.062133789063 L 890.3189697265625 1108.061157226563 C 916.9940185546875 1097.934814453125 934.6319580078125 1072.372802734375 934.6319580078125 1043.843017578125 L 934.632080078125 1026.240234375 C 934.6314697265625 1023.929565429688 933.0970458984375 1021.89990234375 930.8740234375 1021.269653320313 L 892.9347534179688 1010.46728515625 C 891.8008422851563 1010.145874023438 890.6334228515625 1009.985168457031 889.4660034179688 1009.985168457031 C 888.298583984375 1009.985168457031 887.1312255859375 1010.145874023438 885.997314453125 1010.46728515625 L 848.0537109375 1021.26953125 C 845.83251953125 1021.9013671875 844.2999877929688 1023.9306640625 844.2999877929688 1026.240234375 L 844.2999877929688 1043.843017578125 C 844.2965698242188 1072.372924804688 861.9306640625 1097.934448242188 888.6025390625 1108.062133789063 L 888.6026000976563 1108.062133789063 C 888.8787231445313 1108.166748046875 889.1691284179688 1108.218994140625 889.4595336914063 1108.218994140625 M 889.4595336914063 1118.218994140625 L 887.629638671875 1118.218994140625 L 885.0613403320313 1117.414184570313 C 854.6920776367188 1105.882446289063 834.2960815429688 1076.3173828125 834.2999877929688 1043.841796875 L 834.2999877929688 1026.240234375 C 834.2999877929688 1019.495666503906 838.8306274414063 1013.496398925781 845.3176879882813 1011.651123046875 L 883.2592163085938 1000.849426269531 C 885.2860717773438 1000.27490234375 887.3706665039063 999.9851684570313 889.4660034179688 999.9851684570313 C 891.5613403320313 999.9851684570313 893.6458740234375 1000.27490234375 895.6618041992188 1000.846313476563 L 933.6124267578125 1011.651916503906 C 940.0944213867188 1013.489624023438 944.6303100585938 1019.488708496094 944.632080078125 1026.237548828125 L 944.6319580078125 1043.843139648438 C 944.6319580078125 1076.319213867188 924.2315063476563 1105.883666992188 893.8680419921875 1117.41015625 L 892.1531982421875 1118.061157226563 L 889.4595336914063 1118.218994140625 Z" stroke="none" fill="#fff"/>
        </g>
      </g>
      <g id="Group_11" data-name="Group 11" transform="translate(321.143 -460.5)">
        <path id="Path_153" data-name="Path 153" d="M236.094,2043.5v32.706l-10.237-8.91" transform="translate(3 4)" fill="none" stroke="#1cff86" stroke-linecap="round" stroke-linejoin="round" stroke-width="5"/>
        <path id="Path_154" data-name="Path 154" d="M227.857,2076.205V2043.5l10.237,8.911" transform="translate(23.708 4)" fill="none" stroke="#1cff86" stroke-linecap="round" stroke-linejoin="round" stroke-width="5"/>
      </g>
    </g>
    <g transform="matrix(1, 0, 0, 1, 243.99, 1363.73)" filter="url(#sheild_2-2)">
      <g id="sheild_2-5" data-name="sheild 2" transform="translate(-493.8 -956.49)" fill="#1958f5">
        <path d="M 857.2108154296875 1039.569580078125 C 857.0614624023438 1039.569580078125 856.9136962890625 1039.554565429688 856.768798828125 1039.524658203125 L 856.6906127929688 1039.524658203125 L 856.4332275390625 1039.427001953125 C 852.4060668945313 1037.897827148438 848.9844360351563 1035.215454101563 846.5382690429688 1031.669555664063 C 844.0921020507813 1028.123657226563 842.7994384765625 1023.972473144531 842.7999267578125 1019.664733886719 L 842.7999267578125 1014.63232421875 C 842.7999267578125 1013.308349609375 843.6892700195313 1012.130676269531 844.9625854492188 1011.768432617188 L 855.8102416992188 1008.680236816406 C 856.267822265625 1008.550598144531 856.739013671875 1008.485168457031 857.212646484375 1008.485168457031 C 857.686279296875 1008.485168457031 858.157470703125 1008.550598144531 858.6132202148438 1008.679748535156 L 869.461669921875 1011.768493652344 C 870.7345581054688 1012.129577636719 871.6248779296875 1013.30712890625 871.6253662109375 1014.631774902344 L 871.6253662109375 1019.664916992188 C 871.6253662109375 1023.97265625 870.3320922851563 1028.123901367188 867.8853759765625 1031.669677734375 C 865.4386596679688 1035.215454101563 862.0164794921875 1037.897827148438 857.9888916015625 1039.4267578125 L 857.93505859375 1039.447265625 L 857.9188842773438 1039.451904296875 C 857.6906127929688 1039.530029296875 857.4527587890625 1039.569580078125 857.2108154296875 1039.569580078125 Z" stroke="none"/>
        <path d="M 857.2108154296875 1038.069580078125 C 857.2937622070313 1038.069580078125 857.3767700195313 1038.0546875 857.4556884765625 1038.024658203125 L 857.45654296875 1038.0244140625 C 865.082763671875 1035.12939453125 870.1253662109375 1027.821411132813 870.1253662109375 1019.664916992188 L 870.1253662109375 1014.63232421875 C 870.1251220703125 1013.9716796875 869.6865234375 1013.391479492188 869.0509033203125 1013.211181640625 L 858.204345703125 1010.122924804688 C 857.880126953125 1010.031066894531 857.54638671875 1009.985168457031 857.212646484375 1009.985168457031 C 856.87890625 1009.985168457031 856.545166015625 1010.031066894531 856.220947265625 1010.122924804688 L 845.373046875 1013.211181640625 C 844.738037109375 1013.391845703125 844.2999267578125 1013.972045898438 844.2999267578125 1014.63232421875 L 844.2999267578125 1019.664916992188 C 844.2989501953125 1027.821411132813 849.3404541015625 1035.12939453125 856.9656982421875 1038.024658203125 L 856.9658203125 1038.024658203125 C 857.0447998046875 1038.0546875 857.1278076171875 1038.069580078125 857.2108154296875 1038.069580078125 M 857.2108154296875 1041.069580078125 C 857.01708984375 1041.069580078125 856.8248901367188 1041.054565429688 856.63525390625 1041.024658203125 L 856.4154663085938 1041.024658203125 L 855.9008178710938 1040.829345703125 C 851.5878295898438 1039.191650390625 847.92333984375 1036.31884765625 845.3035888671875 1032.521362304688 C 842.683837890625 1028.723754882813 841.2993774414063 1024.277954101563 841.2999267578125 1019.66455078125 L 841.2999267578125 1014.63232421875 C 841.2999267578125 1012.641418457031 842.6372680664063 1010.870483398438 844.5521240234375 1010.32568359375 L 855.3995361328125 1007.237548828125 C 855.9920043945313 1007.069702148438 856.6007690429688 1006.985168457031 857.212646484375 1006.985168457031 C 857.8245239257813 1006.985168457031 858.4332885742188 1007.069702148438 859.0220336914063 1007.236511230469 L 869.8724365234375 1010.325866699219 C 871.7857666015625 1010.868591308594 873.1246337890625 1012.639343261719 873.1253662109375 1014.631164550781 L 873.1253662109375 1019.664916992188 C 873.1253662109375 1024.278442382813 871.7403564453125 1028.72412109375 869.1199951171875 1032.521606445313 C 866.4996337890625 1036.318969726563 862.8346557617188 1039.191650390625 858.521240234375 1040.8291015625 L 858.41357421875 1040.869995117188 L 858.3700561523438 1040.8828125 C 857.9957885742188 1041.0068359375 857.6066284179688 1041.069580078125 857.2108154296875 1041.069580078125 Z" stroke="none" fill="#fff"/>
      </g>
    </g>
    <g transform="matrix(1, 0, 0, 1, 243.99, 1363.73)" filter="url(#sheild_2-3)">
      <g id="sheild_2-6" data-name="sheild 2" transform="translate(-746.8 -855.85)" fill="#1958f5">
        <path d="M 861.0584716796875 1049.439331054688 C 860.8318481445313 1049.439331054688 860.6072387695313 1049.419799804688 860.3860473632813 1049.381103515625 L 860.1901245117188 1049.381103515625 L 859.6753540039063 1049.185668945313 C 854.2473754882813 1047.124633789063 849.6356201171875 1043.509033203125 846.3385620117188 1038.729858398438 C 843.0415649414063 1033.950561523438 841.2991943359375 1028.35546875 841.2998657226563 1022.549255371094 L 841.2998657226563 1016.017272949219 C 841.2998657226563 1013.83056640625 842.7687377929688 1011.885437011719 844.8718872070313 1011.287048339844 L 858.9522094726563 1007.278625488281 C 859.6406860351563 1007.083557128906 860.3489379882813 1006.985107421875 861.0608520507813 1006.985107421875 C 861.7727661132813 1006.985107421875 862.4810180664063 1007.083557128906 863.166015625 1007.277648925781 L 877.2486572265625 1011.287231445313 C 879.3506469726563 1011.883361816406 880.8212280273438 1013.828430175781 880.8218383789063 1016.016418457031 L 880.8218383789063 1022.549621582031 C 880.8218383789063 1028.355834960938 879.0787353515625 1033.950927734375 875.7809448242188 1038.72998046875 C 872.4996948242188 1043.485229492188 867.9163818359375 1047.088500976563 862.523193359375 1049.154418945313 L 862.5201416015625 1049.15576171875 L 862.4390258789063 1049.186645507813 C 861.996337890625 1049.354248046875 861.5317993164063 1049.439331054688 861.0584716796875 1049.439331054688 Z" stroke="none"/>
        <path d="M 861.0584716796875 1046.439331054688 C 861.1661987304688 1046.439331054688 861.27392578125 1046.419921875 861.3764038085938 1046.381103515625 L 861.3775024414063 1046.380615234375 C 871.2764282226563 1042.622802734375 877.8218383789063 1033.136962890625 877.8218383789063 1022.549621582031 L 877.8218383789063 1016.017272949219 C 877.8215942382813 1015.159729003906 877.2522583007813 1014.406555175781 876.4271850585938 1014.172546386719 L 862.3480834960938 1010.164001464844 C 861.92724609375 1010.044738769531 861.4940795898438 1009.985107421875 861.0608520507813 1009.985107421875 C 860.627685546875 1009.985107421875 860.1944580078125 1010.044738769531 859.7736206054688 1010.164001464844 L 845.6928100585938 1014.172546386719 C 844.8685913085938 1014.407043457031 844.2998657226563 1015.160217285156 844.2998657226563 1016.017272949219 L 844.2998657226563 1022.549621582031 C 844.2986450195313 1033.136962890625 850.8425903320313 1042.622802734375 860.7402954101563 1046.381103515625 L 860.7405395507813 1046.381103515625 C 860.843017578125 1046.419921875 860.9507446289063 1046.439331054688 861.0584716796875 1046.439331054688 M 861.0584716796875 1052.439331054688 L 859.9600830078125 1052.439331054688 L 858.6149291992188 1051.991943359375 C 846.4606323242188 1047.376953125 838.29833984375 1035.545288085938 838.2998657226563 1022.548950195313 L 838.2998657226563 1016.017272949219 C 838.2998657226563 1012.496643066406 840.664794921875 1009.364929199219 844.0509643554688 1008.401550292969 L 858.1307983398438 1004.393310546875 C 859.0888061523438 1004.121765136719 860.0723266601563 1003.985107421875 861.0608520507813 1003.985107421875 C 862.0493774414063 1003.985107421875 863.0328979492188 1004.121765136719 863.9840698242188 1004.391357421875 L 878.0701904296875 1008.40185546875 C 881.4532470703125 1009.361389160156 883.8208618164063 1012.492919921875 883.8218383789063 1016.015563964844 L 883.8218383789063 1022.549621582031 C 883.8218383789063 1035.546142578125 875.6578979492188 1047.377319335938 863.5069580078125 1051.989990234375 L 862.47802734375 1052.380615234375 L 861.0584716796875 1052.439331054688 Z" stroke="none" fill="#fff"/>
      </g>
    </g>
  </g>
</svg>
