<svg xmlns="http://www.w3.org/2000/svg" xmlns:xlink="http://www.w3.org/1999/xlink" width="407.085" height="439.625" viewBox="0 0 407.085 439.625">
  <defs>
    <filter id="sheild_2" x="203" y="128.434" width="204.085" height="206.191" filterUnits="userSpaceOnUse">
      <feOffset dy="41" input="SourceAlpha"/>
      <feGaussianBlur stdDeviation="29" result="blur"/>
      <feFlood flood-opacity="0.161"/>
      <feComposite operator="in" in2="blur"/>
      <feComposite in="SourceGraphic"/>
    </filter>
    <filter id="sheild_2-2" x="62" y="0" width="220.438" height="223.625" filterUnits="userSpaceOnUse">
      <feOffset dy="41" input="SourceAlpha"/>
      <feGaussianBlur stdDeviation="29" result="blur-2"/>
      <feFlood flood-opacity="0.161"/>
      <feComposite operator="in" in2="blur-2"/>
      <feComposite in="SourceGraphic"/>
    </filter>
    <filter id="sheild_2-3" x="0" y="147.392" width="284.332" height="292.234" filterUnits="userSpaceOnUse">
      <feOffset dy="41" input="SourceAlpha"/>
      <feGaussianBlur stdDeviation="29" result="blur-3"/>
      <feFlood flood-opacity="0.161"/>
      <feComposite operator="in" in2="blur-3"/>
      <feComposite in="SourceGraphic"/>
    </filter>
  </defs>
  <g id="Group_127" data-name="Group 127" transform="translate(-261 -1868.608)">
    <g id="Logo_Xtra_VPN" data-name="Logo Xtra VPN" transform="translate(363 1912.269)">
      <path id="Path_142" data-name="Path 142" d="M1120.209,931.01a22.537,22.537,0,0,1-22.523,22.537h-84.645q-3.7-5.482-7.071-11.217a221.466,221.466,0,0,1-16.26-33.85h107.976A22.53,22.53,0,0,1,1120.209,931.01Z" transform="translate(-975.094 -764.24)" fill="rgba(0,0,0,0.24)"/>
      <path id="Path_143" data-name="Path 143" d="M1278.218,908.478a222.153,222.153,0,0,1-23.339,45.067H1230.9a22.535,22.535,0,1,1,0-45.07Z" transform="translate(-1043.922 -764.239)" fill="rgba(0,0,0,0.24)"/>
      <path id="Path_144" data-name="Path 144" d="M1106.406,1037.722a22.461,22.461,0,0,1-5.167,14.39,222.182,222.182,0,0,1-44.93-36.892h27.559a22.53,22.53,0,0,1,22.537,22.537Z" transform="translate(-996.059 -797.841)" fill="rgba(0,0,0,0.24)"/>
      <path id="Path_145" data-name="Path 145" d="M1216.592,1015.17a221.927,221.927,0,0,1-50.452,40.2,22.03,22.03,0,0,1-1.953-1.727,22.537,22.537,0,0,1,15.938-38.475Z" transform="translate(-1027.938 -797.824)" fill="rgba(0,0,0,0.24)"/>
      <path id="Path_146" data-name="Path 146" d="M1057.81,824.317a22.537,22.537,0,0,1-22.537,22.537H974.426a222.051,222.051,0,0,1-5.886-45.073h66.733a22.53,22.53,0,0,1,22.537,22.537Z" transform="translate(-968.43 -730.653)" fill="rgba(0,0,0,0.24)"/>
      <path id="Path_147" data-name="Path 147" d="M1267.093,801.78a221.555,221.555,0,0,1-5.886,45.073h-111.69a22.537,22.537,0,1,1,0-45.073Z" transform="translate(-1018.305 -730.653)" fill="rgba(0,0,0,0.24)"/>
      <path id="Path_148" data-name="Path 148" d="M1134.812,718.549a22.537,22.537,0,0,1-22.537,22.544H968.38A20.7,20.7,0,0,1,984.6,721.064l100.158-22.208a37.385,37.385,0,0,1,16.116,0l29.711,6.585a22.433,22.433,0,0,1,4.228,13.108Z" transform="translate(-968.38 -697.978)" fill="rgba(0,0,0,0.24)"/>
      <path id="Path_149" data-name="Path 149" d="M1302.578,747.03h-40.592a22.55,22.55,0,0,1-21.242-30.15l45.6,10.114A20.687,20.687,0,0,1,1302.578,747.03Z" transform="translate(-1053.701 -703.928)" fill="rgba(0,0,0,0.24)"/>
    </g>
    <g id="Group_14" data-name="Group 14" transform="translate(166.512 30)">
      <g transform="matrix(1, 0, 0, 1, 94.49, 1838.61)" filter="url(#sheild_2)">
        <g id="sheild_2-4" data-name="sheild 2" transform="translate(-551.3 -832.55)" fill="#1958f5">
          <path d="M 856.3406372070313 1037.676635742188 C 856.080078125 1037.676635742188 855.824462890625 1037.629760742188 855.5807495117188 1037.537475585938 C 851.8046264648438 1036.103637695313 848.5972900390625 1033.589233398438 846.3042602539063 1030.265380859375 C 844.0112915039063 1026.941528320313 842.799560546875 1023.05029296875 842.800048828125 1019.012268066406 L 842.800048828125 1014.319152832031 C 842.800048828125 1013.039489746094 843.65966796875 1011.901245117188 844.8904418945313 1011.551147460938 L 855.0067749023438 1008.671020507813 C 855.4424438476563 1008.547546386719 855.8912353515625 1008.485168457031 856.3423461914063 1008.485168457031 C 856.79345703125 1008.485168457031 857.2422485351563 1008.547546386719 857.6762084960938 1008.670532226563 L 867.79345703125 1011.551208496094 C 869.023681640625 1011.900024414063 869.8843383789063 1013.038208007813 869.8847045898438 1014.318725585938 L 869.8846435546875 1019.012451171875 C 869.8846435546875 1023.050476074219 868.67236328125 1026.941650390625 866.37890625 1030.265380859375 C 864.0853881835938 1033.589233398438 860.8775024414063 1036.103637695313 857.1021118164063 1037.536865234375 L 857.0889282226563 1037.541870117188 L 857.083984375 1037.543701171875 C 856.8452758789063 1037.6318359375 856.5952758789063 1037.676635742188 856.3406372070313 1037.676635742188 Z" stroke="none"/>
          <path d="M 856.3406372070313 1036.176635742188 C 856.4180908203125 1036.176635742188 856.4954833984375 1036.162719726563 856.569091796875 1036.134765625 L 856.5697631835938 1036.134521484375 C 863.6819458007813 1033.4345703125 868.3846435546875 1026.619140625 868.3846435546875 1019.012451171875 L 868.3847045898438 1014.319152832031 C 868.384521484375 1013.703125 867.9754028320313 1013.161926269531 867.3826904296875 1012.993896484375 L 857.2672119140625 1010.113708496094 C 856.96484375 1010.028015136719 856.6536254882813 1009.985168457031 856.3423461914063 1009.985168457031 C 856.0310668945313 1009.985168457031 855.7198486328125 1010.028015136719 855.41748046875 1010.113708496094 L 845.3008422851563 1012.993896484375 C 844.7086181640625 1013.162353515625 844.300048828125 1013.703369140625 844.300048828125 1014.319152832031 L 844.300048828125 1019.012451171875 C 844.2991333007813 1026.619262695313 849.0007934570313 1033.4345703125 856.1121215820313 1036.134765625 C 856.1857299804688 1036.162719726563 856.26318359375 1036.176635742188 856.3406372070313 1036.176635742188 M 856.3406372070313 1039.176635742188 C 855.8978271484375 1039.176635742188 855.4633178710938 1039.097045898438 855.0492553710938 1038.940185546875 C 850.9863891601563 1037.3974609375 847.5361938476563 1034.692626953125 845.069580078125 1031.1171875 C 842.60302734375 1027.541625976563 841.2994995117188 1023.355834960938 841.300048828125 1019.012084960938 L 841.300048828125 1014.319152832031 C 841.300048828125 1012.372497558594 842.6077270507813 1010.640930175781 844.4800415039063 1010.108337402344 L 854.5960083007813 1007.228393554688 C 855.16650390625 1007.066650390625 855.7529296875 1006.985168457031 856.3423461914063 1006.985168457031 C 856.9318237304688 1006.985168457031 857.5181884765625 1007.066650390625 858.0852661132813 1007.227416992188 L 868.2042236328125 1010.108581542969 C 870.0748901367188 1010.638916015625 871.3840942382813 1012.370361328125 871.3847045898438 1014.318237304688 L 871.3846435546875 1019.012512207031 C 871.3846435546875 1023.356140136719 870.0806274414063 1027.5419921875 867.6134643554688 1031.117309570313 C 865.1463623046875 1034.692749023438 861.6956787109375 1037.3974609375 857.6344604492188 1038.939208984375 L 857.6080322265625 1038.94921875 L 857.5961303710938 1038.953491210938 C 857.19287109375 1039.1015625 856.7706909179688 1039.176635742188 856.3406372070313 1039.176635742188 Z" stroke="none" fill="#fff"/>
        </g>
      </g>
    </g>
    <g id="Group_15" data-name="Group 15" transform="translate(27.512 -96.434)">
      <g transform="matrix(1, 0, 0, 1, 233.49, 1965.04)" filter="url(#sheild_2-2)">
        <g id="sheild_2-5" data-name="sheild 2" transform="translate(-690.3 -958.99)" fill="#1958f5">
          <path d="M 862.5164794921875 1052.110595703125 C 862.0946044921875 1052.110595703125 861.6805419921875 1052.034912109375 861.285888671875 1051.885498046875 C 855.528076171875 1049.69921875 850.6382446289063 1045.86572265625 847.1425170898438 1040.798461914063 C 843.6466674804688 1035.731079101563 841.79931640625 1029.798583984375 841.8001098632813 1023.642395019531 L 841.8001098632813 1016.542114257813 C 841.8001098632813 1014.503540039063 843.16943359375 1012.690246582031 845.130126953125 1012.132507324219 L 860.435302734375 1007.775207519531 C 861.1151733398438 1007.58251953125 861.8153076171875 1007.485229492188 862.51904296875 1007.485229492188 C 863.2227783203125 1007.485229492188 863.9229125976563 1007.58251953125 864.5999755859375 1007.7744140625 L 879.9068603515625 1012.132690429688 C 881.8666381835938 1012.688354492188 883.237548828125 1014.501647949219 883.2380981445313 1016.541442871094 L 883.2380981445313 1023.642700195313 C 883.2380981445313 1029.798828125 881.389892578125 1035.731201171875 877.893310546875 1040.798461914063 C 874.396728515625 1045.865844726563 869.5061645507813 1049.69921875 863.7503662109375 1051.88427734375 L 863.748291015625 1051.885009765625 L 863.7451782226563 1051.88623046875 C 863.3526000976563 1052.034790039063 862.9384765625 1052.110595703125 862.5164794921875 1052.110595703125 Z" stroke="none"/>
          <path d="M 862.5164794921875 1049.610595703125 C 862.6336059570313 1049.610595703125 862.750732421875 1049.589477539063 862.8621215820313 1049.54736328125 L 862.8630981445313 1049.546997070313 C 873.6232299804688 1045.462158203125 880.7380981445313 1035.151000976563 880.7380981445313 1023.642700195313 L 880.7380981445313 1016.542114257813 C 880.7378540039063 1015.610107421875 880.1189575195313 1014.791381835938 879.2222290039063 1014.537109375 L 863.9182739257813 1010.1796875 C 863.4608764648438 1010.050048828125 862.989990234375 1009.985229492188 862.51904296875 1009.985229492188 C 862.0481567382813 1009.985229492188 861.5772094726563 1010.050048828125 861.1198120117188 1010.1796875 L 845.8141479492188 1014.537109375 C 844.9181518554688 1014.7919921875 844.3001098632813 1015.610473632813 844.3001098632813 1016.542114257813 L 844.3001098632813 1023.642700195313 C 844.2986450195313 1035.151245117188 851.4119262695313 1045.462158203125 862.1707153320313 1049.54736328125 C 862.2821655273438 1049.589477539063 862.3992919921875 1049.610595703125 862.5164794921875 1049.610595703125 M 862.5164794921875 1054.610595703125 C 861.7911376953125 1054.610595703125 861.079345703125 1054.48046875 860.40087890625 1054.2236328125 L 860.3983764648438 1054.22265625 L 860.3958129882813 1054.2216796875 C 857.270263671875 1053.034912109375 854.3583984375 1051.385498046875 851.7410888671875 1049.319091796875 C 849.1797485351563 1047.296875 846.9402465820313 1044.907836914063 845.0846557617188 1042.218017578125 C 843.2290649414063 1039.5283203125 841.7908935546875 1036.586303710938 840.8099975585938 1033.473876953125 C 839.8076782226563 1030.293334960938 839.2996826171875 1026.9853515625 839.3001098632813 1023.64208984375 L 839.3001098632813 1016.542114257813 C 839.3001098632813 1015.010864257813 839.8082885742188 1013.494689941406 840.73095703125 1012.272766113281 C 841.65380859375 1011.050659179688 842.9732055664063 1010.146911621094 844.4461059570313 1009.727905273438 L 859.750732421875 1005.370788574219 L 859.7535400390625 1005.369995117188 L 859.7564086914063 1005.369201660156 C 860.6552734375 1005.114440917969 861.5847778320313 1004.985229492188 862.51904296875 1004.985229492188 C 863.453369140625 1004.985229492188 864.3828735351563 1005.114440917969 865.28173828125 1005.369201660156 L 865.2846069335938 1005.369995117188 L 865.2874755859375 1005.370849609375 L 880.5862426757813 1009.726745605469 L 880.5862426757813 1009.726745605469 C 882.0602416992188 1010.144714355469 883.380859375 1011.047973632813 884.3048095703125 1012.270141601563 C 885.2286987304688 1013.4921875 885.7376708984375 1015.008850097656 885.7380981445313 1016.540771484375 L 885.7380981445313 1023.642700195313 C 885.7380981445313 1026.985961914063 885.2296752929688 1030.293823242188 884.2268676757813 1033.474365234375 C 883.2455444335938 1036.586791992188 881.8069458007813 1039.528686523438 879.9509887695313 1042.218383789063 C 878.0950317382813 1044.908081054688 875.8551025390625 1047.297119140625 873.29345703125 1049.319213867188 C 870.6757202148438 1051.385498046875 867.7634887695313 1053.034790039063 864.6376342773438 1054.221435546875 L 864.6334228515625 1054.22314453125 L 864.629150390625 1054.224731445313 C 863.9541015625 1054.480346679688 863.2421264648438 1054.610595703125 862.5164794921875 1054.610595703125 Z" stroke="none" fill="#fff"/>
        </g>
      </g>
    </g>
    <g id="Group_126" data-name="Group 126">
      <g id="Group_7" data-name="Group 7" transform="translate(-29.488 55.958)">
        <g transform="matrix(1, 0, 0, 1, 290.49, 1812.65)" filter="url(#sheild_2-3)">
          <g id="sheild_2-6" data-name="sheild 2" transform="translate(-747.3 -806.59)" fill="#1958f5">
            <path d="M 889.4595947265625 1113.218994140625 C 888.55859375 1113.218994140625 887.6744995117188 1113.05712890625 886.8319091796875 1112.738159179688 C 879.7852783203125 1110.062377929688 873.22509765625 1106.346435546875 867.329345703125 1101.691650390625 C 861.5590209960938 1097.135986328125 856.5133056640625 1091.753173828125 852.3323974609375 1085.692626953125 C 848.1514892578125 1079.632202148438 844.9110717773438 1073.00390625 842.7012939453125 1065.991943359375 C 840.4434204101563 1058.827514648438 839.299072265625 1051.375366210938 839.2999877929688 1043.842407226563 L 839.2999877929688 1026.240234375 C 839.2999877929688 1024.042602539063 840.0294189453125 1021.866333007813 841.3538208007813 1020.112548828125 C 842.6783447265625 1018.358642578125 844.5718994140625 1017.061584472656 846.6857299804688 1016.460327148438 L 884.6282348632813 1005.658386230469 L 884.6309814453125 1005.657592773438 L 884.6337280273438 1005.656799316406 C 886.2059936523438 1005.211120605469 887.831787109375 1004.985168457031 889.4660034179688 1004.985168457031 C 891.1001586914063 1004.985168457031 892.7259521484375 1005.211120605469 894.2982788085938 1005.656799316406 L 894.3011474609375 1005.657592773438 L 894.303955078125 1005.658386230469 L 932.2432250976563 1016.460754394531 C 934.3565063476563 1017.061218261719 936.2498779296875 1018.356811523438 937.5748901367188 1020.109375 C 938.90087890625 1021.86328125 939.6315307617188 1024.040161132813 939.632080078125 1026.238891601563 L 939.6319580078125 1043.843017578125 C 939.6319580078125 1051.3759765625 938.4866333007813 1058.828125 936.2278442382813 1065.992553710938 C 934.01708984375 1073.004516601563 930.7758178710938 1079.632690429688 926.5939331054688 1085.693115234375 C 922.412109375 1091.753540039063 917.365478515625 1097.13623046875 911.5943603515625 1101.691650390625 C 905.7109375 1106.335693359375 899.166748046875 1110.045043945313 892.1417236328125 1112.71728515625 L 892.1389770507813 1112.718505859375 L 892.0872192382813 1112.738159179688 C 891.24462890625 1113.05712890625 890.3605346679688 1113.218994140625 889.4595947265625 1113.218994140625 Z" stroke="none"/>
            <path d="M 889.4595336914063 1108.218994140625 C 889.75 1108.218994140625 890.0404052734375 1108.166748046875 890.3165283203125 1108.062133789063 L 890.3189697265625 1108.061157226563 C 916.9940185546875 1097.934814453125 934.6319580078125 1072.372802734375 934.6319580078125 1043.843017578125 L 934.632080078125 1026.240234375 C 934.6314697265625 1023.929565429688 933.0970458984375 1021.89990234375 930.8740234375 1021.269653320313 L 892.9347534179688 1010.46728515625 C 891.8008422851563 1010.145874023438 890.6334228515625 1009.985168457031 889.4660034179688 1009.985168457031 C 888.298583984375 1009.985168457031 887.1312255859375 1010.145874023438 885.997314453125 1010.46728515625 L 848.0537109375 1021.26953125 C 845.83251953125 1021.9013671875 844.2999877929688 1023.9306640625 844.2999877929688 1026.240234375 L 844.2999877929688 1043.843017578125 C 844.2965698242188 1072.372924804688 861.9306640625 1097.934448242188 888.6025390625 1108.062133789063 L 888.6026000976563 1108.062133789063 C 888.8787231445313 1108.166748046875 889.1691284179688 1108.218994140625 889.4595336914063 1108.218994140625 M 889.4595336914063 1118.218994140625 L 887.629638671875 1118.218994140625 L 885.0613403320313 1117.414184570313 C 854.6920776367188 1105.882446289063 834.2960815429688 1076.3173828125 834.2999877929688 1043.841796875 L 834.2999877929688 1026.240234375 C 834.2999877929688 1019.495666503906 838.8306274414063 1013.496398925781 845.3176879882813 1011.651123046875 L 883.2592163085938 1000.849426269531 C 885.2860717773438 1000.27490234375 887.3706665039063 999.9851684570313 889.4660034179688 999.9851684570313 C 891.5613403320313 999.9851684570313 893.6458740234375 1000.27490234375 895.6618041992188 1000.846313476563 L 933.6124267578125 1011.651916503906 C 940.0944213867188 1013.489624023438 944.6303100585938 1019.488708496094 944.632080078125 1026.237548828125 L 944.6319580078125 1043.843139648438 C 944.6319580078125 1076.319213867188 924.2315063476563 1105.883666992188 893.8680419921875 1117.41015625 L 892.1531982421875 1118.061157226563 L 889.4595336914063 1118.218994140625 Z" stroke="none" fill="#fff"/>
          </g>
        </g>
      </g>
      <g id="Group_13" data-name="Group 13" transform="translate(88.5 -65.5)">
        <path id="Path_155" data-name="Path 155" d="M1269.4,2214.728l17.1-16.735,17.1,16.735" transform="translate(-971.899 -25.493)" fill="none" stroke="#1cff86" stroke-linecap="round" stroke-linejoin="round" stroke-width="5"/>
        <path id="Path_156" data-name="Path 156" d="M1269.4,2208.273l11.605-10.28,11.6,10.28" transform="translate(-966.404 -8.266)" fill="none" stroke="rgba(28,255,134,0.53)" stroke-linecap="round" stroke-linejoin="round" stroke-width="5"/>
      </g>
    </g>
  </g>
</svg>
